<svg xmlns="http://www.w3.org/2000/svg" xmlns:xlink="http://www.w3.org/1999/xlink"
  style="margin:auto;background:rgba(NaN, NaN, NaN, 0);display:block;z-index:1;position:relative" width="1920"
  height="955" preserveAspectRatio="xMidYMid" viewBox="0 0 1920 955">
  <g transform="translate(960,477.5) scale(1,1) translate(-960,-477.5)">
    <g transform="translate(442.2151008546697,49.15107888888042) scale(100)" opacity="0.52">
      <path
        d="M6.417599999999999 0 C6.417599999999999 1.8144 6.988776795535841 1.9398835073735137 6.081576795535842 3.511199999999999 S4.780116492626486 4.650604631327012 3.2088000000000005 5.557804631327013 S1.8144000000000005 7.022399999999999 4.299979841166186e-16 7.022399999999999 S-1.6374835073735128 6.465004631327012 -3.2087999999999983 5.557804631327013 S-5.1743767955358395 5.082516492626487 -6.08157679553584 3.511200000000002 S-6.417599999999999 1.814400000000001 -6.417599999999999 7.859293298208053e-16 S-6.988776795535842 -1.9398835073735121 -6.081576795535843 -3.511199999999998 S-4.780116492626488 -4.650604631327011 -3.2088000000000023 -5.557804631327011 S-1.8144000000000013 -7.022399999999999 -1.2899939523498557e-15 -7.022399999999999 S1.637483507373509 -6.465004631327014 3.208799999999995 -5.5578046313270155 S5.174376795535839 -5.082516492626488 6.081576795535839 -3.5112000000000028 S6.417599999999998 -1.8144000000000016 6.417599999999999 -1.5718586596416105e-15"
        fill="#e4812f" stroke-width="0">
        <animateTransform attributeName="transform" type="rotate" dur="16.666666666666664s" repeatCount="indefinite"
          values="0;60"></animateTransform>
      </path>
    </g>
    <g transform="translate(338.6581210256037,-36.51870533334352) scale(100)" opacity="0.52">
      <path
        d="M7.7011199999999995 0 C7.7011199999999995 2.17728 8.38653215464301 2.3278602088482154 7.2978921546430096 4.2134399999999985 S5.736139791151784 5.580725557592416 3.8505600000000006 6.669365557592416 S2.1772800000000005 8.426879999999999 5.159975809399423e-16 8.426879999999999 S-1.9649802088482151 7.758005557592416 -3.850559999999998 6.669365557592416 S-6.209252154643007 6.099019791151784 -7.297892154643008 4.213440000000002 S-7.7011199999999995 2.177280000000001 -7.7011199999999995 9.431151957849664e-16 S-8.38653215464301 -2.3278602088482137 -7.29789215464301 -4.213439999999997 S-5.7361397911517855 -5.580725557592413 -3.8505600000000033 -6.669365557592414 S-2.1772800000000014 -8.426879999999999 -1.547992742819827e-15 -8.426879999999999 S1.964980208848211 -7.758005557592417 3.8505599999999944 -6.6693655575924184 S6.209252154643006 -6.099019791151785 7.297892154643007 -4.213440000000003 S7.701119999999999 -2.177280000000002 7.7011199999999995 -1.886230391569933e-15"
        fill="#eb903e" stroke-width="0">
        <animateTransform attributeName="transform" type="rotate" dur="8.333333333333332s" repeatCount="indefinite"
          values="0;60"></animateTransform>
      </path>
    </g>
    <g transform="translate(90.12136943584528,-242.1261874666808) scale(100)" opacity="0.52">
      <path
        d="M10.781567999999998 0 C10.781567999999998 3.048192 11.741145016500212 3.2590042923875018 10.217049016500212 5.898815999999997 S8.030595707612495 7.81301578062938 5.390784 9.33711178062938 S3.0481920000000007 11.797631999999997 7.223966133159191e-16 11.797631999999997 S-2.750972292387501 10.861207780629382 -5.3907839999999965 9.337111780629382 S-8.692953016500208 8.538627707612497 -10.21704901650021 5.898816000000002 S-10.781567999999998 3.048192000000001 -10.781567999999998 1.3203612740989528e-15 S-11.741145016500212 -3.2590042923874987 -10.217049016500214 -5.898815999999995 S-8.030595707612498 -7.813015780629377 -5.390784000000004 -9.337111780629378 S-3.048192000000002 -11.797631999999997 -2.1671898399477573e-15 -11.797631999999997 S2.7509722923874955 -10.861207780629384 5.390783999999992 -9.337111780629385 S8.692953016500207 -8.538627707612498 10.217049016500209 -5.898816000000004 S10.781567999999998 -3.0481920000000025 10.781567999999998 -2.6407225481979056e-15"
        fill="#f29f4d" stroke-width="0">
        <animateTransform attributeName="transform" type="rotate" dur="5.5555555555555545s" repeatCount="indefinite"
          values="0;60"></animateTransform>
      </path>
    </g>
    <g transform="translate(-431.80580890264764,-673.9018999466894) scale(100)" opacity="0.52">
      <path
        d="M17.2505088 0 C17.2505088 4.8771072 18.78583202640034 5.214406867820003 16.34727842640034 9.438105599999997 S12.848953132179993 12.50082524900701 8.625254400000001 14.93937884900701 S4.877107200000001 18.876211199999997 1.1558345813054708e-15 18.876211199999997 S-4.401555667820002 17.377932449007012 -8.625254399999996 14.939378849007012 S-13.908724826400334 13.661804332179997 -16.347278426400337 9.438105600000005 S-17.2505088 4.877107200000002 -17.2505088 2.112578038558325e-15 S-18.785832026400342 -5.214406867819999 -16.347278426400344 -9.438105599999993 S-12.848953132179998 -12.500825249007004 -8.625254400000006 -14.939378849007007 S-4.877107200000004 -18.876211199999997 -3.467503743916412e-15 -18.876211199999997 S4.401555667819993 -17.377932449007012 8.625254399999989 -14.939378849007017 S13.908724826400334 -13.66180433218 16.347278426400337 -9.438105600000007 S17.2505088 -4.877107200000005 17.2505088 -4.22515607711665e-15"
        fill="#f9ae5c" stroke-width="0">
        <animateTransform attributeName="transform" type="rotate" dur="4.166666666666666s" repeatCount="indefinite"
          values="0;60"></animateTransform>
      </path>
    </g>
  </g>
</svg>