<svg class="injected-svg" id="svg-a1248df5-8633-450a-9bbb-414f092bb5a1" height="100%" width="100%" viewBox="0 0 540 508"
  xmlns="http://www.w3.org/2000/svg">
  <g xmlns="http://www.w3.org/2000/svg" fill="#d68048" id="shape-svg">
    <title>Graphic</title>
    <g id="Слой_2" data-name="Слой 2">
      <g>
        <path transform="translate(73, 204) scale(1,1)" d="M393.43,96.11H0V0H393.43ZM9.52,86.6H383.91V9.52H9.52Z">
        </path>
      </g>
    </g>
  </g>
  <g xmlns="http://www.w3.org/2000/svg" fill="#000000" id="icon-svg">
    <path transform="translate(374, 108) scale(0.5,0.5)"
      d="M 81 18 L 81 27 100 27 L 119 27 119 18 L 119 9 100 9 L 81 9 81 18 M 66.250 19.213 L 56 28.373 56 38.186 L 56 48 44 48 L 32 48 32 119.500 L 32 191 100 191 L 168 191 168 119.500 L 168 48 156 48 L 144 48 144 38.236 L 144 28.472 133.942 19.486 C 128.410 14.544, 123.460 10.350, 122.942 10.167 C 122.374 9.966, 122 17.412, 122 28.917 L 122 48 100 48 L 78 48 78 29 C 78 18.550, 77.662 10.012, 77.250 10.027 C 76.838 10.042, 71.888 14.176, 66.250 19.213"
      stroke="none" fill-rule="evenodd"></path>
  </g>
  <path xmlns="http://www.w3.org/2000/svg" id="SvgjsPath38786030"
    d="M26.80-40.60L41.41 0.06L31.55 0.06L30.04-4.06Q29.93-4.47 29.52-4.47L29.52-4.47L12.01-4.47Q11.66-4.47 11.48-4.06L11.48-4.06L10.03 0.06L0.17 0.06L14.79-40.60L26.80-40.60ZM20.24-28.42L15.25-14.50Q15.14-14.21 15.31-13.98Q15.49-13.75 15.78-13.75L15.78-13.75L25.81-13.75Q26.56-13.75 26.33-14.50L26.33-14.50L21.34-28.42Q21.17-28.83 20.76-28.83Q20.36-28.83 20.24-28.42L20.24-28.42ZM55.45-9.86L55.45-9.86Q55.45-9.22 56.09-9.22L56.09-9.22L76.91-9.22L76.91 0.06L46.17 0.06L46.17-40.60L55.45-40.60L55.45-9.86ZM92.45-9.86L92.45-9.86Q92.45-9.22 93.09-9.22L93.09-9.22L113.91-9.22L113.91 0.06L83.17 0.06L83.17-40.60L92.45-40.60L92.45-9.86ZM149.18-40.60L149.18-40.60L158.46-40.60L158.46 0.06L149.18 0.06L149.18-40.60ZM189.49-40.60L198.77-40.60L198.77 0.06L190.53 0.06L175.97-22.45Q175.91-22.56 175.86-22.53Q175.80-22.50 175.80-22.39L175.80-22.39L175.80 0.06L166.52 0.06L166.52-40.60L174.93-40.60L189.31-19.31Q189.37-19.20 189.43-19.23Q189.49-19.26 189.49-19.37L189.49-19.37L189.49-40.60ZM267.79-34.57L267.79-34.57Q269.47-31.55 269.76-28.10Q270.05-24.65 270.05-20.82L270.05-20.82L270.05-16.88L269.99-16.88Q269.87-14.27 269.44-11.83Q269.00-9.40 267.79-7.19L267.79-7.19Q265.64-3.42 261.64-1.74L261.64-1.74Q258.04-0.06 252.13-0.06L252.13-0.06Q246.33-0.06 242.61-1.74L242.61-1.74Q238.67-3.48 236.52-7.19L236.52-7.19Q234.84-10.21 234.55-13.69Q234.26-17.17 234.26-20.94L234.26-20.94L234.26-24.88L234.32-24.88Q234.44-27.49 234.84-29.93Q235.25-32.36 236.52-34.57L236.52-34.57Q238.67-38.28 242.61-40.02L242.61-40.02Q246.33-41.70 252.13-41.70L252.13-41.70Q258.04-41.70 261.64-40.02L261.64-40.02Q265.64-38.34 267.79-34.57ZM260.65-20.76L260.65-20.82Q260.65-23.61 260.54-26.07Q260.42-28.54 259.61-29.93L259.61-29.93Q259.49-30.16 259.17-30.54Q258.85-30.91 258.04-31.29Q257.23-31.67 255.84-31.96Q254.45-32.25 252.13-32.25L252.13-32.25Q249.86-32.25 248.44-31.96Q247.02-31.67 246.24-31.29Q245.46-30.91 245.14-30.54Q244.82-30.16 244.70-29.93L244.70-29.93Q243.89-28.54 243.77-26.16Q243.66-23.78 243.66-21.05L243.66-21.05L243.66-20.94Q243.66-18.15 243.77-15.69Q243.89-13.22 244.70-11.83L244.70-11.83Q244.82-11.66 245.14-11.25Q245.46-10.85 246.24-10.47Q247.02-10.09 248.44-9.80Q249.86-9.51 252.13-9.51L252.13-9.51Q254.45-9.51 255.84-9.80Q257.23-10.09 258.04-10.47Q258.85-10.85 259.17-11.25Q259.49-11.66 259.61-11.83L259.61-11.83Q260.42-13.22 260.54-15.60Q260.65-17.98 260.65-20.76L260.65-20.76ZM299.45-40.60L308.73-40.60L308.73 0.06L300.50 0.06L285.94-22.45Q285.88-22.56 285.82-22.53Q285.77-22.50 285.77-22.39L285.77-22.39L285.77 0.06L276.49 0.06L276.49-40.60L284.90-40.60L299.28-19.31Q299.34-19.20 299.40-19.23Q299.45-19.26 299.45-19.37L299.45-19.37L299.45-40.60ZM348.29-31.20L324.97-31.20Q324.51-31.20 324.51-30.74L324.51-30.74L324.51-23.03Q324.51-22.50 324.97-22.50L324.97-22.50L343.82-22.50L343.82-13.28L324.97-13.28Q324.51-13.28 324.51-12.76L324.51-12.76L324.51-9.74Q324.51-9.28 324.97-9.28L324.97-9.28L348.29-9.28L348.29 0L315.23 0L315.23-40.60L348.29-40.60L348.29-31.20Z"
    fill="#000000" fontsize="58" transform="matrix(1,0,0,1,95.77,272.82)"></path>
</svg>